<svg width="162" height="147" viewBox="0 0 162 147" fill="none" xmlns="http://www.w3.org/2000/svg">
<g clip-path="url(#clip0_15901_7)">
<path d="M142.988 0H18.0444C13.2259 0.0401509 8.6258 1.41705 5.24821 3.83012C1.87061 6.2432 -0.0100937 9.49642 0.0166741 12.8796V24.2722H8.1884V12.9148C8.18808 11.0696 9.22166 9.29852 11.0659 7.98402C12.91 6.66953 15.4167 5.91715 18.0444 5.88948H142.988C145.619 5.91411 148.13 6.66516 149.977 7.97997C151.825 9.29479 152.861 11.0677 152.86 12.9148V109.559H8.1717V91.0941H0V115.413H160.999V12.9264C161.044 9.53717 159.173 6.27368 155.797 3.85081C152.421 1.42793 147.815 0.0432304 142.988 0Z" fill="#AAAAAA"/>
<path d="M8.19434 33.6667H0.0166016V81.4787H8.19434V33.6667Z" fill="#AAAAAA"/>
<path d="M34.0289 141.16H28.0875V119.479H19.9099V147.001H39.7032L54.106 119.479L45.3775 119.503L34.0289 141.16Z" fill="#AAAAAA"/>
<path d="M133.046 141.16H127.105L115.756 119.479H107.028L121.431 147.001H141.224V119.479H133.063L133.046 141.16Z" fill="#AAAAAA"/>
<path d="M56.6265 57.5776C56.7251 60.8773 58.213 64.0833 60.9037 66.7931C63.5945 69.5035 67.368 71.5973 71.7524 72.8123C76.1361 74.0278 80.9346 74.3099 85.547 73.6241C90.1595 72.9382 94.3793 71.3148 97.6789 68.9573C100.978 66.5993 103.21 63.6124 104.094 60.3706C104.979 57.1293 104.476 53.7768 102.65 50.7343C100.823 47.6914 97.754 45.0939 93.8272 43.267C89.9003 41.4401 85.2904 40.4652 80.5756 40.4645C74.1617 40.52 68.04 42.3519 63.5517 45.5593C59.0631 48.7668 56.573 53.0882 56.6265 57.5776ZM78.1222 44.0857V55.2412H83.0289V44.0857C87.826 44.522 92.2065 46.2196 95.28 48.8343C98.3534 51.4491 99.8905 54.7846 99.5782 58.1633C99.2658 61.5425 97.1281 64.7117 93.5984 67.0274C90.0694 69.3431 85.4129 70.6317 80.5756 70.6317C75.7376 70.6317 71.0817 69.3431 67.5521 67.0274C64.023 64.7117 61.8851 61.5425 61.5728 58.1633C61.2606 54.7846 62.7973 51.4491 65.8711 48.8343C68.9446 46.2196 73.3251 44.522 78.1222 44.0857Z" fill="#AAAAAA"/>
<path d="M83.0289 28.7948H78.1223V35.4765H83.0289V28.7948Z" fill="#AAAAAA"/>
<path d="M69.1099 29.9293L64.5034 31.1208L67.6907 37.4054L72.2974 36.2022L69.1099 29.9293Z" fill="#AAAAAA"/>
<path d="M52.8042 36.6453L58.829 41.7735L62.5841 39.5189L56.576 34.4025L52.8042 36.6453Z" fill="#AAAAAA"/>
<path d="M44.4765 44.6941L52.5707 48.0351L55.024 45.0095L46.9297 41.6686L44.4765 44.6941Z" fill="#AAAAAA"/>
<path d="M40.4882 54.296L49.7005 55.4642L50.5517 52.0064L41.3393 50.8497L40.4882 54.296Z" fill="#AAAAAA"/>
<path d="M40.4882 60.8492L41.3393 64.295L50.5517 63.1387L49.7005 59.681L40.4882 60.8492Z" fill="#AAAAAA"/>
<path d="M55.024 70.1359L52.5707 67.1105L44.4765 70.4515L46.9131 73.4769L55.024 70.1359Z" fill="#AAAAAA"/>
<path d="M62.5674 75.626L58.8124 73.3833L52.8042 78.4998L56.5593 80.7544L62.5674 75.626Z" fill="#AAAAAA"/>
<path d="M69.1098 85.2174L72.2973 78.9447L67.6914 77.7411L64.4868 84.0258L69.1098 85.2174Z" fill="#AAAAAA"/>
<path d="M83.0289 79.6791H78.1223V86.3607H83.0289V79.6791Z" fill="#AAAAAA"/>
<path d="M92.0406 85.2174L96.6473 84.0258L93.4591 77.7411L88.8531 78.9447L92.0406 85.2174Z" fill="#AAAAAA"/>
<path d="M98.566 75.6379L104.591 80.7544L108.346 78.4998L102.321 73.3833L98.566 75.6379Z" fill="#AAAAAA"/>
<path d="M116.674 70.4515L108.58 67.1105L106.127 70.1479L114.221 73.4884L116.674 70.4515Z" fill="#AAAAAA"/>
<path d="M120.663 60.8495L111.45 59.6932L110.599 63.139L119.811 64.2957L120.663 60.8495Z" fill="#AAAAAA"/>
<path d="M119.811 50.8497L110.599 52.0179L111.45 55.4642L120.663 54.3074L119.811 50.8497Z" fill="#AAAAAA"/>
<path d="M106.127 45.0095L108.58 48.0465L116.691 44.7057L114.238 41.6686L106.127 45.0095Z" fill="#AAAAAA"/>
<path d="M98.5828 39.5189L102.338 41.7735L108.346 36.657L104.591 34.4025L98.5828 39.5189Z" fill="#AAAAAA"/>
<path d="M92.0575 29.9293L88.8531 36.2139L93.4591 37.4054L96.6635 31.1325L92.0575 29.9293Z" fill="#AAAAAA"/>
</g>
<defs>
<clipPath id="clip0_15901_7">
<rect width="162" height="147" fill="white"/>
</clipPath>
</defs>
</svg>
