<svg width="162" height="147" viewBox="0 0 162 147" fill="none" xmlns="http://www.w3.org/2000/svg">
<g clip-path="url(#clip0_0_292)">
<path d="M161.998 49.6392L162 25.3845L130.45 25.2611L130.433 30.5841L149.409 30.6585L115.602 49.8392L115.604 23.1059C115.604 23.1035 115.604 23.1035 115.604 23.1012C115.602 22.1609 115.142 21.2904 114.389 20.8133L82.1595 0.36862C81.3807 -0.124807 80.416 -0.122479 79.6412 0.373276L47.6154 20.8156C46.865 21.2951 46.4041 22.1632 46.4041 23.1035L46.4021 49.8392L13.3096 30.6469L31.5757 30.5794L31.5584 25.2565L4.19062 25.3589L3.65625 25.0493L3.49832 25.3635L0.00865238 25.3775L0.00649013 49.6348H4.95432L4.95647 31.8525L46.3996 55.8841L46.3976 89.1043L44.2276 90.3355L46.3976 94.7575V94.7598L44.2276 90.3355L4.94784 112.621L4.94999 95.3184H0.00216227L0 119.576L31.5497 119.699L31.5671 114.376L12.5935 114.301L46.3956 95.1228L46.3932 121.854C46.3932 122.797 46.8561 123.667 47.6114 124.147L79.8405 144.591C80.2277 144.838 80.6626 144.962 81.0972 144.962C81.5342 144.962 81.9716 144.836 82.3588 144.589L114.382 124.149C115.133 123.67 115.594 122.802 115.594 121.861L115.596 96.0213L149.586 115.735L130.422 115.807L130.44 121.13L161.989 121.012L161.992 96.7545H157.044L157.041 114.013L117.783 91.2456L115.594 89.9747L115.596 55.8604L157.048 32.3413L157.046 49.6437H161.998V49.6392ZM80.9048 5.75211L108.27 23.1129L81.1017 40.4526L53.7338 23.0942L80.9048 5.75211ZM51.3455 92.3138L65.4492 84.3116L60.2891 81.2233L51.3475 86.297L51.352 27.7585L78.6352 45.0635L78.6287 137.639L51.3455 120.332V92.3138ZM110.652 93.1468L110.65 120.341L83.5722 137.625L83.5786 45.0608L110.657 27.7794L110.652 87.1024L100.348 81.1253L95.5646 84.398L110.652 93.1468Z" fill="#AAAAAA"/>
</g>
<defs>
<clipPath id="clip0_0_292">
<rect width="162" height="147" fill="white"/>
</clipPath>
</defs>
</svg>
