<svg width="162" height="147" viewBox="0 0 162 147" fill="none" xmlns="http://www.w3.org/2000/svg">
<g clip-path="url(#clip0_0_289)">
<path d="M133.191 31.1668L145.334 18.9404L139.85 15.1947L127.664 27.4212C114.905 19.4091 99.4127 14.7896 83.3004 14.1935V5.88942H96.7486V0H62.8018V5.88942H76.25V14.1935C33.8744 15.7601 1.6787e-05 44.7832 1.6787e-05 80.2845C-0.009194 92.033 3.77213 103.579 10.9675 113.772L17.0895 110.792C10.537 101.505 7.09571 90.987 7.10856 80.2845C7.10856 47.0446 39.7354 20.0123 79.8191 20.0123C119.902 20.0123 152.529 47.1034 152.529 80.2965C152.529 113.489 119.873 140.616 79.79 140.616C64.8201 140.598 50.2317 136.781 38.067 129.697H53.4592V123.808H25.6198V147H32.7284V133.714C46.3107 141.979 62.8158 146.465 79.79 146.505C123.79 146.505 159.579 116.823 159.579 80.3433C159.618 71.1094 157.292 61.9697 152.749 53.5039C148.207 45.0383 141.546 37.4318 133.191 31.1668Z" fill="#AAAAAA"/>
<path d="M83.3004 80.285H83.344V31.4851H76.2355V77.3404H31.3938V83.2296H83.3004V80.285Z" fill="#AAAAAA"/>
</g>
<defs>
<clipPath id="clip0_0_289">
<rect width="162" height="147" fill="white"/>
</clipPath>
</defs>
</svg>
